<?xml version="1.0" encoding="iso-8859-1"?>
<!-- Generator: Adobe Illustrator 16.0.0, SVG Export Plug-In . SVG Version: 6.00 Build 0)  -->
<!DOCTYPE svg PUBLIC "-//W3C//DTD SVG 1.1//EN" "http://www.w3.org/Graphics/SVG/1.1/DTD/svg11.dtd">
<svg version="1.1" id="Capa_1" xmlns="http://www.w3.org/2000/svg" xmlns:xlink="http://www.w3.org/1999/xlink" x="0px" y="0px"
	 width="28.242px" height="26.847px" viewBox="0 0 28.242 26.847" style="enable-background:new 0 0 28.242 26.847;"
	 xml:space="preserve">
<path d="M28.242,16.2c0-0.712-0.541-1.286-1.221-1.322l0.002-0.036c0.016-0.216,0.029-0.437,0.029-0.655
	c0-4.166-1.4-7.742-4.045-10.352C20.49,1.36,17.908,0,14.125,0C10.344,0,7.76,1.36,5.244,3.835C2.6,6.443,1.197,10.021,1.197,14.187
	c0,0.161,0.01,0.324,0.016,0.484l0.006,0.207C0.541,14.919,0,15.488,0,16.2v8.874c0,0.74,0.574,1.341,1.287,1.341h0.434
	c0.254,0.274,0.6,0.433,0.963,0.433h1.311c0.744,0,1.354-0.63,1.354-1.41V15.84c0-0.78-0.609-1.408-1.354-1.408H3.113
	c0.08-6.633,4.045-12.51,11.279-12.51c6.479,0,10.641,5.855,10.738,12.51h-0.879c-0.744,0-1.352,0.628-1.352,1.408v9.597
	c0,0.78,0.607,1.41,1.352,1.41h1.311c0.367,0,0.707-0.156,0.955-0.433h0.445c0.705,0,1.279-0.601,1.279-1.341V16.2z"/>
<g>
</g>
<g>
</g>
<g>
</g>
<g>
</g>
<g>
</g>
<g>
</g>
<g>
</g>
<g>
</g>
<g>
</g>
<g>
</g>
<g>
</g>
<g>
</g>
<g>
</g>
<g>
</g>
<g>
</g>
</svg>
