<?xml version="1.0" encoding="iso-8859-1"?>
<!-- Generator: Adobe Illustrator 16.0.0, SVG Export Plug-In . SVG Version: 6.00 Build 0)  -->
<!DOCTYPE svg PUBLIC "-//W3C//DTD SVG 1.1//EN" "http://www.w3.org/Graphics/SVG/1.1/DTD/svg11.dtd">
<svg version="1.1" id="Capa_1" xmlns="http://www.w3.org/2000/svg" xmlns:xlink="http://www.w3.org/1999/xlink" x="0px" y="0px"
	 width="19.996px" height="31.106px" viewBox="0 0 19.996 31.106" style="enable-background:new 0 0 19.996 31.106;"
	 xml:space="preserve">
<path d="M15.684,5.555C15.684,2.488,13.678,0,9.998,0C6.314,0,4.441,2.488,4.441,5.555V6.88h11.242V5.555z"/>
<path d="M9.998,19.997c3.68,0,5.686-2.486,5.686-5.553V7.851H4.441v6.592C4.441,17.511,6.314,19.997,9.998,19.997z"/>
<path d="M17.775,6.666v7.778c0,4.288-2.877,7.776-7.777,7.776s-7.777-3.488-7.777-7.776V6.666C0.982,5.427,0,6.666,0,6.666v7.757
	c0,0.007,0,0.013,0,0.021c0,5.145,3.889,9.38,8.887,9.933v3.451l-4.428,0.01L3.33,31.106H16.3l-1.105-3.281l-4.087,0.001v-3.451
	c5-0.554,8.887-4.788,8.887-9.933h0.002V6.666C18.633,5.305,17.775,6.666,17.775,6.666z"/>
<g>
</g>
<g>
</g>
<g>
</g>
<g>
</g>
<g>
</g>
<g>
</g>
<g>
</g>
<g>
</g>
<g>
</g>
<g>
</g>
<g>
</g>
<g>
</g>
<g>
</g>
<g>
</g>
<g>
</g>
</svg>
