<?xml version="1.0" encoding="utf-8"?>
<!-- Generator: Adobe Illustrator 15.0.0, SVG Export Plug-In . SVG Version: 6.00 Build 0)  -->
<!DOCTYPE svg PUBLIC "-//W3C//DTD SVG 1.1//EN" "http://www.w3.org/Graphics/SVG/1.1/DTD/svg11.dtd">
<svg version="1.1" id="Layer_1" xmlns="http://www.w3.org/2000/svg" xmlns:xlink="http://www.w3.org/1999/xlink" x="0px" y="0px"
	 width="26px" height="26px" viewBox="0 0 26 26" enable-background="new 0 0 26 26" xml:space="preserve">
<circle fill="#000000" cx="20" cy="20" r="1.813"/>
<rect fill="none" width="26" height="26"/>
<circle fill="#000000" cx="23.5" cy="1.5" r="1.438"/>
<circle fill="#000000" cx="4" cy="8" r="1.813"/>
<g>
	<path fill="#000000" d="M2.94,7.814c-0.152-0.01-0.287-0.113-0.331-0.268C2.553,7.353,2.598,6.896,2.793,6.84l20.654-5.723
		c0.197-0.055,0.397,0.059,0.453,0.254c0.057,0.194-0.059,0.397-0.253,0.453L3.171,7.978C3.131,7.989,2.98,7.816,2.94,7.814z"/>
</g>
<rect x="16" y="9" fill="#000000" width="1" height="6"/>
<path fill="#000000" d="M23,8H3c-1.656,0-3,1.344-3,3v12c0,1.656,1.344,3,3,3h20c1.656,0,3-1.344,3-3V11C26,9.344,24.656,8,23,8z
	 M3,10h20v4H3V10z M4,22.5C4,22.776,3.776,23,3.5,23S3,22.776,3,22.5v-5C3,17.224,3.224,17,3.5,17S4,17.224,4,17.5V22.5z M6,22.5
	C6,22.776,5.776,23,5.5,23S5,22.776,5,22.5v-5C5,17.224,5.224,17,5.5,17S6,17.224,6,17.5V22.5z M8,22.5C8,22.776,7.776,23,7.5,23
	S7,22.776,7,22.5v-5C7,17.224,7.224,17,7.5,17S8,17.224,8,17.5V22.5z M10,22.5c0,0.276-0.224,0.5-0.5,0.5S9,22.776,9,22.5v-5
	C9,17.224,9.224,17,9.5,17s0.5,0.224,0.5,0.5V22.5z M12,22.5c0,0.276-0.224,0.5-0.5,0.5S11,22.776,11,22.5v-5
	c0-0.276,0.224-0.5,0.5-0.5s0.5,0.224,0.5,0.5V22.5z M14,22.5c0,0.276-0.224,0.5-0.5,0.5S13,22.776,13,22.5v-5
	c0-0.276,0.224-0.5,0.5-0.5s0.5,0.224,0.5,0.5V22.5z M20,23.166c-1.749,0-3.166-1.417-3.166-3.166s1.417-3.166,3.166-3.166
	s3.166,1.417,3.166,3.166S21.749,23.166,20,23.166z"/>
</svg>
