<?xml version="1.0" encoding="utf-8"?>
<!-- Generator: Adobe Illustrator 15.0.0, SVG Export Plug-In . SVG Version: 6.00 Build 0)  -->
<!DOCTYPE svg PUBLIC "-//W3C//DTD SVG 1.1//EN" "http://www.w3.org/Graphics/SVG/1.1/DTD/svg11.dtd">
<svg version="1.1" id="Layer_1" xmlns="http://www.w3.org/2000/svg" xmlns:xlink="http://www.w3.org/1999/xlink" x="0px" y="0px"
	 width="26px" height="26px" viewBox="0 0 26 26" enable-background="new 0 0 26 26" xml:space="preserve">
<rect fill="none" width="26" height="26"/>
<path fill="#000000" d="M21.563,0.17L10.453,3.569C9.107,3.953,8.016,5.357,8.016,6.703V18.26c0,0,0,0.158,0,0.162
	c0,0-0.805-0.543-2.598-0.289c-2.633,0.374-4.768,2.395-4.768,4.515s2.135,3.419,4.768,3.045c2.635-0.372,4.566-2.331,4.566-4.452
	c0,0,0-9.066,0-10.006s1.13-1.343,1.13-1.343l9.823-3.079c0,0,1.087-0.365,1.087,0.641s0,8.031,0,8.031s0,0.002,0,0.006
	c0,0-1.001-0.576-2.794-0.358c-2.633,0.319-4.768,2.298-4.768,4.417c0,2.121,2.135,3.463,4.768,3.143
	c2.635-0.319,4.77-2.297,4.77-4.418V1.912C24,0.566,22.908-0.214,21.563,0.17z"/>
</svg>
